<svg width="104" height="82" viewBox="0 0 104 82" fill="none" xmlns="http://www.w3.org/2000/svg">
<path d="M81.6997 35.5726L76.1703 57.3146C75.488 59.9968 75.1471 61.338 74.2567 62.3411C73.4713 63.2257 72.3904 63.9224 71.1334 64.3545C69.7078 64.8445 67.9687 64.8445 64.4903 64.8445H39.3533C35.875 64.8445 34.1358 64.8445 32.7103 64.3545C31.4533 63.9224 30.3724 63.2257 29.5872 62.3411C28.6967 61.338 28.3557 59.9968 27.6735 57.3146L22.1441 35.5726M81.6997 35.5726H74.2552M81.6997 35.5726H85.4219M22.1441 35.5726H18.4219M22.1441 35.5726H29.5885M74.2552 35.5726H29.5885M74.2552 35.5726L63.0885 18.0095M29.5885 35.5726L40.7552 18.0095M40.7552 44.3542V53.1357M51.9219 44.3542V53.1357M63.0885 44.3542V53.1357" stroke="black" stroke-width="2" stroke-linecap="round" stroke-linejoin="round"/>
</svg>
