<svg width="134" height="130" viewBox="0 0 134 130" fill="none" xmlns="http://www.w3.org/2000/svg">
<g clip-path="url(#clip0_58_588)">
<path d="M131.11 27.4155C131.11 62.5916 108.047 93.2126 67.6326 93.2126C60.1925 93.2126 53.2922 92.1751 46.9993 90.2602C19.0861 81.7825 2.88989 56.1132 2.88989 27.4155" stroke="white" stroke-width="5" stroke-miterlimit="10"/>
<path d="M16.3193 29.7268L20.7226 18.5582V60.1453H35.2992L40.428 59.8923L15.965 72.5456L16.3193 29.7268Z" fill="white"/>
<path d="M42.79 29.7268V49.9215C42.79 57.5641 46.181 60.8033 50.7362 60.8033C55.7976 60.8033 59.0368 57.4628 59.0368 49.9215V29.7268L63.2039 18.5582L63.4908 49.6178C63.4908 60.0947 57.9402 90.2602 50.5507 90.2602C43.566 90.2602 38.336 60.3984 38.336 49.8203L38.7409 18.5582L42.79 29.7268Z" fill="white"/>
<path d="M78.3879 29.5244L75.5367 43.9997H92.0366L91.8848 18.5582L99.4767 29.5244L96.4906 32.9998V63.8401L91.8848 88.5731L92.0366 47.8463H75.5367V63.8401L70.7959 93.6344V18.5582L78.3879 29.5244Z" fill="white"/>
<path d="M110.612 33.4722H96.9461L100.236 29.7268L125.627 29.5244L129.001 33.7421L115.066 33.4722L114.661 75.9198L110.612 63.8401V33.4722Z" fill="white"/>
<path d="M53.5031 90.682C53.5031 90.682 52.7945 97.8269 54.3466 102.492C56.0337 107.553 59.408 130.329 44.224 128.642C34.1014 126.955 32.4143 112.614 37.4756 106.709C40.5799 103.082 47.4717 92.7571 46.2654 90.0324" stroke="white" stroke-width="3" stroke-miterlimit="10"/>
<path d="M65.9961 103.437C67.9447 101.302 72.2637 95.2203 71.5129 93.6091L73.7484 94.0562C74.8028 97.0424 79.746 117.355 70.2307 116.36" stroke="white" stroke-width="3" stroke-miterlimit="10"/>
<path d="M70.2307 116.36C63.8872 115.364 62.8243 106.92 65.9961 103.437" stroke="white" stroke-width="3" stroke-miterlimit="10"/>
<path d="M121.527 83.8998C119.579 81.7656 115.175 73.7265 115.926 72.1238L113.775 74.5195C112.721 77.5056 107.777 97.8184 117.293 96.823" stroke="white" stroke-width="3" stroke-miterlimit="10"/>
<path d="M117.293 96.823C123.636 95.8277 124.699 87.3837 121.527 83.8998" stroke="white" stroke-width="3" stroke-miterlimit="10"/>
</g>
<defs>
<clipPath id="clip0_58_588">
<rect width="132.438" height="130" fill="white" transform="translate(0.781006)"/>
</clipPath>
</defs>
</svg>
