<svg width="114" height="90" viewBox="0 0 114 90" fill="none" xmlns="http://www.w3.org/2000/svg">
<path d="M95 37.5L87.9439 65.3535C87.0732 68.7896 86.6381 70.5079 85.5019 71.793C84.4997 72.9263 83.1203 73.8187 81.5162 74.3722C79.6969 75 77.4777 75 73.0389 75H40.961C36.5223 75 34.3029 75 32.4838 74.3722C30.8796 73.8187 29.5003 72.9263 28.4983 71.793C27.3619 70.5079 26.9267 68.7896 26.0562 65.3535L19 37.5M95 37.5H85.5M95 37.5H99.75M19 37.5H14.25M19 37.5H28.5M85.5 37.5H28.5M85.5 37.5L71.25 15M28.5 37.5L42.75 15M42.75 48.75V60M57 48.75V60M71.25 48.75V60" stroke="white" stroke-width="2" stroke-linecap="round" stroke-linejoin="round"/>
</svg>
