<svg width="51" height="52" viewBox="0 0 51 52" fill="none" xmlns="http://www.w3.org/2000/svg">
<path d="M18.0038 27.0374V29.7595C18.0038 30.25 18.4789 30.6495 19.0665 30.6495H21.6582C22.2441 30.6495 22.7191 30.25 22.7191 29.7595V27.48H23.6041V29.7595C23.6041 30.25 24.0791 30.6495 24.665 30.6495H27.2584C27.8442 30.6495 28.3211 30.25 28.3211 29.7595V27.48H29.2044V29.7595C29.2044 30.25 29.6794 30.6495 30.2671 30.6495H32.8588C33.4446 30.6495 33.9197 30.25 33.9197 29.7595V27.0374C36.6204 26.3495 41.1298 24.7533 42.664 21.5269C43.7777 19.181 43.3414 16.0934 41.6734 10.1417C40.0017 4.18702 35.1457 0.861816 25.9598 0.861816C16.7739 0.861816 11.9196 4.18702 10.25 10.1417C8.5803 16.0934 8.14217 19.181 9.25941 21.5269C10.7919 24.7533 15.3013 26.3481 18.0038 27.0374ZM32.3711 11.6039C34.8132 11.2538 37.1954 12.941 37.6916 15.3701C38.186 17.8007 36.6078 20.054 34.1674 20.4057C31.7218 20.7542 29.3378 19.0701 28.8435 16.6379C28.3492 14.2087 29.9291 11.9555 32.3711 11.6039ZM29.3995 22.7067H25.9598H22.5237L25.9598 19.1039L29.3995 22.7067ZM14.2298 15.3701C14.7295 12.941 17.1083 11.2538 19.5503 11.6039C21.9941 11.9556 23.5758 14.2088 23.0779 16.6379C22.5834 19.0701 20.203 20.7542 17.7592 20.4057C15.3136 20.054 13.7354 17.8007 14.2298 15.3701Z" fill="white"/>
<path d="M47.6956 40.1297C45.8499 39.4141 43.6806 40.0156 42.6866 41.4638C41.9565 42.2596 40.8215 41.948 40.3008 41.7476C39.9136 41.5979 35.8776 40.034 31.0849 38.1787C35.2037 36.5253 38.6046 35.1604 39.2855 34.8874C41.1663 34.1332 42.5176 33.7214 43.758 34.6129C44.84 35.8776 46.8774 36.351 48.6087 35.657C50.5529 34.8781 51.3745 32.9241 50.4438 31.2939C49.8826 30.3069 48.8057 29.6683 47.6146 29.4879C48.1952 28.5965 48.278 27.4952 47.7132 26.5067C46.7842 24.8765 44.4547 24.1887 42.5106 24.9675C40.8268 25.643 39.9876 27.1976 40.3958 28.6612C40.4925 29.7624 38.6223 30.6446 37.3819 31.1428C36.5162 31.4899 31.1676 33.6768 25.4495 35.9964C20.0727 33.9143 15.1041 31.9911 14.2614 31.6657C12.3665 30.9315 11.1261 30.3224 11.1526 28.9543C11.6241 27.449 10.7602 25.8312 9.01659 25.1541C7.06192 24.3984 4.74299 25.1141 3.83868 26.755C3.29154 27.7483 3.39176 28.8495 3.98821 29.7363C2.79879 29.929 1.73267 30.5783 1.18722 31.5716C0.284599 33.2142 1.1379 35.1574 3.09449 35.9146C4.78882 36.5701 6.75227 36.1198 7.83438 34.9229C8.78621 34.1564 10.7884 34.8011 12.0341 35.287C12.6851 35.5384 15.8697 36.7491 19.8441 38.2651C15.0585 40.1929 11.0048 41.8047 10.3679 41.9821C9.98971 42.0885 9.6501 42.1008 9.35102 42.0623C9.32817 42.0176 9.3088 41.9697 9.28245 41.9266C8.35528 40.2964 6.02395 39.607 4.07987 40.3874C2.13567 41.1663 1.31401 43.1219 2.24479 44.7521C2.8078 45.7361 3.88282 46.3761 5.07393 46.5565C4.49504 47.4479 4.41239 48.5507 4.9736 49.5377C5.90606 51.1679 8.23378 51.8573 10.178 51.0784C12.0149 50.3397 12.847 48.5584 12.152 46.9914C11.8881 46.0136 12.8962 45.4769 13.4135 45.2687C13.8762 45.0852 19.5574 42.8041 25.4919 40.4228C31.9754 42.9075 38.4922 45.4291 39.2276 45.8132C39.5655 45.989 39.7941 46.2003 39.949 46.4177C39.9208 46.461 39.8927 46.5025 39.868 46.5473C38.9654 48.1883 39.817 50.1301 41.7753 50.8904C43.7318 51.6461 46.0489 50.9305 46.9532 49.2895C47.4986 48.2978 47.3983 47.195 46.8037 46.3097C47.9931 46.1154 49.0575 45.4645 49.6046 44.4744C50.5072 42.8317 49.6539 40.8868 47.6956 40.1297Z" fill="white"/>
</svg>
